<svg aria-hidden="true" style="position:absolute;width:0;height:0;overflow:hidden" xmlns="http://www.w3.org/2000/svg">
  <defs>
    <symbol id="icon-cart" viewBox="0 0 31 32">
      <path d="M14.795 0.366c-1.856 0.255-3.4 1.395-4.211 2.974l-0.015 0.031c-0.399 0.796-0.527 1.326-0.565 2.347l-0.031 0.821-0.204 0.012c-1.542 0.098-3.009 0.513-3.902 1.103-0.937 0.612-1.679 1.45-2.16 2.438l-0.016 0.036c-0.514 1.044-0.814 2.070-1.378 4.743-0.32 1.51-0.991 4.962-1.156 5.95-0.677 4.027-0.474 5.972 0.805 7.7 1.154 1.561 2.629 2.319 5.114 2.629 1.519 0.188 2.359 0.209 8.436 0.209 6.078 0 6.918-0.021 8.436-0.209 2.655-0.331 4.196-1.191 5.359-2.99 0.526-0.812 0.807-1.712 0.906-2.89 0.135-1.605-0.153-3.73-1.212-8.956-0.933-4.599-1.313-5.818-2.226-7.118-0.503-0.716-1.367-1.45-2.187-1.856-0.789-0.39-1.696-0.623-2.895-0.741l-0.641-0.063-0.033-0.794c-0.022-0.528-0.069-0.932-0.138-1.204-0.614-2.441-2.789-4.219-5.379-4.219-0.249 0-0.494 0.016-0.734 0.048l0.028-0.003zM16.641 2.326c0.942 0.319 1.699 0.973 2.145 1.817l0.010 0.021c0.241 0.459 0.364 0.967 0.41 1.695l0.037 0.603h-7.449l0.002-0.372c0.004-0.847 0.164-1.504 0.51-2.090 0.531-0.889 1.393-1.534 2.411-1.769l0.026-0.005c0.484-0.112 1.388-0.064 1.898 0.1zM20.487 8.359c1.195 0.058 1.649 0.113 2.327 0.286 0.928 0.234 1.801 0.775 2.337 1.447 0.466 0.583 0.897 1.572 1.207 2.766 0.524 2.017 1.658 7.804 1.931 9.86 0.127 0.949 0.129 2.586 0.006 3.14-0.181 0.807-0.549 1.461-1.193 2.111-0.99 0.999-2.35 1.377-5.463 1.518-1.497 0.068-10.758 0.068-12.256 0-2.496-0.113-3.836-0.382-4.793-0.961-0.634-0.384-1.415-1.319-1.669-1.999-0.251-0.671-0.282-0.9-0.279-2.116 0.002-1.57 0.135-2.489 0.998-6.847 0.905-4.569 1.271-5.937 1.865-6.949 0.495-0.838 1.252-1.476 2.157-1.807l0.029-0.009c0.722-0.261 1.75-0.412 3.077-0.455 1.225-0.039 8.83-0.026 9.718 0.017zM10.539 10.508c-0.266 0.061-0.496 0.193-0.674 0.375l-0 0c-0.34 0.311-0.479 0.635-0.479 1.116 0 0.48 0.138 0.805 0.475 1.114 0.336 0.308 0.55 0.389 1.036 0.391 0.347 0.002 0.452-0.018 0.673-0.133 0.326-0.17 0.652-0.533 0.759-0.846 0.329-0.966-0.322-1.973-1.319-2.039-0.046-0.004-0.1-0.007-0.155-0.007-0.112 0-0.221 0.010-0.328 0.029l0.011-0.002zM19.77 10.508c-0.266 0.061-0.496 0.193-0.674 0.375l-0 0c-0.34 0.311-0.479 0.635-0.479 1.116 0 0.48 0.138 0.805 0.475 1.114 0.336 0.308 0.55 0.389 1.036 0.391 0.347 0.002 0.452-0.018 0.673-0.133 0.326-0.17 0.652-0.533 0.759-0.846 0.329-0.966-0.322-1.973-1.319-2.039-0.046-0.004-0.1-0.007-0.155-0.007-0.112 0-0.221 0.010-0.328 0.029l0.011-0.002z"></path>
    </symbol>
    <symbol id="icon-facebook" viewBox="0 0 32 32">
      <path d="M21.62 30.793V19.336h3.845l.575-4.465h-4.42v-2.85c0-1.293.36-2.175 2.212-2.175h2.365v-4a31.755 31.755 0 0 0-3.448-.17c-3.405 0-5.75 2.075-5.75 5.902v3.293h-3.845v4.465h3.845v11.457h4.62z"/>
    </symbol>
    <symbol id="icon-instagram" viewBox="0 0 32 32">
      <path d="M16 3.5c-3.393 0-3.82 0.015-5.153 0.077-1.331 0.060-2.24 0.271-3.034 0.58-0.867 0.331-1.605 0.821-2.213 1.44l-0.001 0.001c-0.62 0.609-1.111 1.348-1.428 2.172l-0.014 0.042c-0.31 0.795-0.521 1.704-0.581 3.034-0.059 1.334-0.076 1.76-0.076 5.155s0.015 3.82 0.077 5.153c0.060 1.331 0.271 2.24 0.58 3.034 0.32 0.822 0.746 1.519 1.441 2.214 0.609 0.62 1.348 1.111 2.173 1.428l0.042 0.014c0.795 0.31 1.702 0.52 3.034 0.581 1.334 0.060 1.76 0.076 5.155 0.076s3.82-0.015 5.153-0.077c1.331-0.060 2.24-0.27 3.035-0.58 0.866-0.331 1.605-0.822 2.212-1.442l0.001-0.001c0.62-0.609 1.111-1.348 1.428-2.172l0.014-0.042c0.307-0.794 0.518-1.702 0.581-3.034 0.059-1.334 0.076-1.759 0.076-5.153s-0.017-3.821-0.077-5.155c-0.061-1.331-0.273-2.239-0.58-3.034-0.332-0.867-0.823-1.605-1.442-2.214l-0.001-0.001c-0.609-0.62-1.348-1.111-2.173-1.427l-0.042-0.014c-0.796-0.308-1.705-0.52-3.036-0.581-1.334-0.060-1.757-0.076-5.153-0.076h0.004zM14.88 5.752h1.121c3.337 0 3.732 0.013 5.051 0.072 1.219 0.056 1.88 0.26 2.321 0.431 0.584 0.227 0.998 0.497 1.436 0.934s0.709 0.854 0.936 1.437c0.172 0.44 0.375 1.101 0.431 2.321 0.059 1.318 0.072 1.714 0.072 5.050s-0.013 3.731-0.072 5.050c-0.056 1.219-0.26 1.88-0.431 2.321-0.211 0.563-0.53 1.042-0.933 1.434l-0.001 0.001c-0.394 0.405-0.874 0.723-1.411 0.926l-0.027 0.009c-0.44 0.173-1.101 0.376-2.321 0.431-1.318 0.060-1.714 0.073-5.051 0.073-3.338 0-3.734-0.013-5.051-0.073-1.219-0.056-1.882-0.26-2.322-0.43-0.564-0.211-1.044-0.53-1.437-0.933l-0.001-0.001c-0.405-0.394-0.723-0.874-0.926-1.411l-0.009-0.027c-0.172-0.44-0.375-1.101-0.431-2.321-0.060-1.318-0.072-1.714-0.072-5.052 0-3.337 0.013-3.731 0.072-5.050 0.056-1.219 0.26-1.879 0.431-2.321 0.227-0.582 0.497-0.998 0.934-1.437 0.394-0.405 0.874-0.723 1.411-0.926l0.027-0.009c0.442-0.173 1.103-0.375 2.322-0.431 1.152-0.051 1.6-0.068 3.93-0.070v0.003zM22.674 7.828c-0.828 0-1.5 0.672-1.5 1.5s0.672 1.5 1.5 1.5v0c0.829 0 1.501-0.672 1.501-1.501s-0.672-1.501-1.501-1.501v0zM16 9.581c-3.545 0-6.419 2.874-6.419 6.419s2.874 6.419 6.419 6.419v0c3.545 0 6.419-2.874 6.419-6.419s-2.874-6.419-6.419-6.419v0zM16 11.834c2.301 0 4.166 1.865 4.166 4.166s-1.865 4.166-4.166 4.166v0c-2.301 0-4.166-1.865-4.166-4.166s1.865-4.166 4.166-4.166v0z"></path>
    </symbol>
    <symbol id="icon-logo" viewBox="0 0 186 32">
      <path d="M5.661 23.025c2.105-0.33 3.917-1.392 5.204-2.912l0.010-0.012c1.287-1.519 2.069-3.501 2.069-5.666 0-0.007 0-0.014-0-0.020v0.001c0.011-2.619 0.944-5.148 2.629-7.125 1.635-1.917 3.913-3.243 6.497-3.644l0.060-0.008 3.649-0.531c-0.098-0.114-0.182-0.229-0.295-0.345-4.593-4.677-13.412-3.271-19.725 3.129-5.34 5.511-7.143 12.829-4.663 17.794l4.565-0.66z"></path>
      <path d="M15.142 14.415c-0.006 2.725-0.997 5.218-2.635 7.143l0.013-0.016c-1.632 1.92-3.907 3.25-6.489 3.656l-0.061 0.008-3.467 0.501 0.211 0.245c4.593 4.677 13.413 3.285 19.725-3.115 5.312-5.395 7.171-12.729 4.706-17.621l-4.706 0.689c-2.093 0.321-3.897 1.367-5.185 2.869l-0.010 0.011c-1.292 1.506-2.085 3.473-2.103 5.625l-0 0.004zM58.311 6.273c0 1.241-0.913 2.077-2.038 2.077-1.34 0-1.826-0.992-4.534-0.992-3.531 0-6.452 2.945-6.452 6.819 0 3.999 2.831 6.819 6.452 6.819 2.951 0 3.531-1.054 4.838-1.054 1.126 0 2.039 0.868 2.039 2.077 0 1.024-0.853 1.766-1.826 2.17-1.37 0.527-3.043 0.868-5.022 0.868-6.33 0-11.077-4.215-11.077-10.88 0-6.167 5.173-10.817 11.138-10.817 1.948 0 3.378 0.278 4.718 0.774 1.065 0.403 1.764 1.117 1.764 2.139zM65.411 17.68c0 2.293 1.37 3.936 3.561 3.936 2.192 0 3.561-1.643 3.561-3.936s-1.369-3.936-3.561-3.936c-2.191 0-3.561 1.643-3.561 3.936zM61.455 17.68c0-4.619 3.317-7.408 7.517-7.408 4.201 0 7.548 2.789 7.548 7.408s-3.347 7.377-7.548 7.377c-4.199 0-7.517-2.758-7.517-7.377zM85.233 10.551h5.052v-1.054c0-3.193 1.125-6.107 4.625-6.107 1.248 0 2.374 0.217 3.226 0.589 1.035 0.434 1.705 1.024 1.705 1.984 0 0.836-0.67 1.55-1.521 1.55-0.427 0-0.762-0.249-1.187-0.434-0.381-0.177-0.827-0.28-1.297-0.28-0.015 0-0.029 0-0.044 0l0.002-0c-1.157 0-1.491 0.683-1.491 2.325v1.426h2.617c0.852 0 1.522 0.774 1.522 1.611 0 0.899-0.67 1.613-1.522 1.613h-2.617v9.298c0 1.085-0.913 1.984-2.009 1.984-1.097 0-2.009-0.899-2.009-1.984v-9.298h-5.052v9.298c0 1.085-0.913 1.984-2.010 1.984-1.095 0-2.009-0.899-2.009-1.984v-9.298h-1.004c-0.852 0-1.552-0.714-1.552-1.612 0-0.837 0.7-1.612 1.552-1.612h1.005v-1.426c0-2.697 1.156-5.424 4.533-5.424 1.097 0 1.948 0.155 2.739 0.496 0.944 0.402 1.583 1.022 1.583 1.952 0 0.868-0.578 1.55-1.309 1.55-0.335 0-0.578-0.093-0.913-0.217s-0.669-0.218-1.065-0.218c-1.218 0-1.553 1.054-1.553 2.17v1.117zM111.731 20.842c0.852 0 1.491 0.743 1.491 1.643 0 0.837-0.578 1.426-1.734 1.891-1.248 0.527-2.618 0.682-3.956 0.682-2.343 0-4.23-0.743-5.508-2.077-1.309-1.364-2.039-3.254-2.039-5.486 0-2.139 0.762-3.968 1.979-5.238 1.217-1.241 2.951-1.984 5.143-1.984 2.252 0 3.865 0.743 4.96 1.859 1.339 1.395 1.734 3.069 1.734 4.464 0 1.457-0.731 2.293-1.978 2.293h-7.609c0.366 1.891 1.613 2.914 3.591 2.914 2.13 0 2.922-0.961 3.925-0.961zM104.185 16.192h5.721c-0.122-1.488-1.125-2.697-2.769-2.697-1.675 0-2.677 1.054-2.951 2.697zM128.634 20.842c0.851 0 1.491 0.743 1.491 1.643 0 0.837-0.578 1.426-1.735 1.891-1.247 0.527-2.617 0.682-3.956 0.682-2.342 0-4.229-0.743-5.508-2.077-1.308-1.364-2.038-3.254-2.038-5.486 0-2.139 0.761-3.968 1.978-5.238 1.218-1.241 2.953-1.984 5.143-1.984 2.252 0 3.865 0.743 4.96 1.859 1.34 1.395 1.735 3.069 1.735 4.464 0 1.457-0.731 2.293-1.979 2.293h-7.607c0.365 1.891 1.613 2.914 3.59 2.914 2.13 0 2.922-0.961 3.926-0.961zM121.086 16.192h5.722c-0.122-1.488-1.126-2.697-2.769-2.697-1.675 0-2.678 1.054-2.953 2.697zM150.191 19.013c0 3.936-3.469 5.733-6.908 5.733h-6.39c-1.248 0-2.192-0.96-2.192-2.17v-16.768c0-1.21 0.944-2.171 2.192-2.171h5.295c3.073 0 6.3 1.706 6.3 5.363 0 2.139-0.913 3.75-2.588 4.525v0.062c2.982 0.714 4.291 2.667 4.291 5.424zM144.105 9.59c0-1.55-1.217-2.356-2.708-2.356h-2.313v4.991h2.282c1.126 0 2.739-0.465 2.739-2.635zM145.717 18.454c0-1.549-1.035-2.666-3.561-2.666h-3.073v5.331h3.226c1.795 0 3.408-0.527 3.408-2.666zM154.122 18.61v-6.354c0-1.085 0.882-1.984 2.009-1.984 1.125 0 2.009 0.899 2.009 1.984v6.106c0 0.806 0.122 1.395 0.396 1.922 0.426 0.774 1.217 1.301 2.495 1.301s2.069-0.527 2.465-1.301c0.274-0.527 0.396-1.116 0.396-1.922v-6.106c0-1.085 0.882-1.984 2.009-1.984s2.009 0.899 2.009 1.984v6.354c0 1.859-0.396 3.193-1.217 4.215-1.217 1.55-3.196 2.231-5.661 2.231-2.495 0-4.503-0.713-5.691-2.231-0.791-1.054-1.217-2.356-1.217-4.215zM183.409 10.24c1.217 0 2.191 0.992 2.191 2.233 0 0.558-0.243 1.085-0.396 1.519l-4.26 11.531c-1.734 4.681-4.9 6.478-7.699 6.478-0.004 0-0.009 0-0.014 0-1.068 0-1.934-0.866-1.934-1.934 0-0.006 0-0.013 0-0.019v0.001c0-1.086 0.852-1.953 1.948-1.953 1.521 0 2.587-0.745 3.347-2.356l-5.265-11.716c-0.182-0.403-0.486-1.023-0.486-1.488 0-1.27 1.004-2.293 2.221-2.293 1.248 0 1.887 0.899 2.131 1.488l3.378 8.678 2.647-8.276c0.365-1.209 1.156-1.89 2.191-1.89z"></path>
    </symbol>
    <symbol id="icon-search" viewBox="0 0 32 32">
      <path d="M12.133 4.696c-2.15 0.204-4.030 1.217-5.359 2.727l-0.008 0.009c-1.243 1.42-2.001 3.292-2.001 5.341s0.758 3.921 2.009 5.35l-0.008-0.009c2.54 2.936 6.918 3.63 10.274 1.63 0.175-0.105 0.426-0.271 0.556-0.37l0.237-0.179 4.056 4.051c4.37 4.363 4.222 4.233 4.685 4.146 0.405-0.075 0.874-0.577 0.93-0.993 0.003-0.024 0.004-0.052 0.004-0.080 0-0.118-0.027-0.23-0.074-0.33l0.002 0.005c-0.064-0.141-1.383-1.5-4.115-4.237l-4.021-4.029 0.179-0.237c0.43-0.57 0.801-1.291 1.068-2.077 0.281-0.788 0.443-1.697 0.443-2.644 0-3.534-2.261-6.54-5.416-7.65l-0.057-0.017c-0.582-0.21-1.256-0.356-1.956-0.406l-0.025-0.001c-0.661-0.059-0.702-0.059-1.406 0.001zM13.923 6.804c0.897 0.168 1.694 0.502 2.393 0.969l-0.023-0.015c0.426 0.279 1.339 1.196 1.62 1.628 1.369 2.107 1.363 4.692-0.018 6.801-0.269 0.412-1.19 1.333-1.602 1.602-1.679 1.099-3.679 1.339-5.529 0.665-0.865-0.316-1.577-0.79-2.264-1.506-1.113-1.161-1.674-2.561-1.674-4.174 0-1.609 0.565-3.016 1.674-4.174 0.906-0.946 1.9-1.496 3.192-1.767 0.626-0.131 1.619-0.143 2.231-0.028z"></path>
    </symbol>
    <symbol id="icon-twitter" viewBox="0 0 32 32">
      <path  d="M24.947 11.426c.014.198.014.397.014.597 0 6.1-4.643 13.134-13.134 13.134v-.004a13.07 13.07 0 0 1-7.076-2.069 9.268 9.268 0 0 0 6.832-1.913 4.62 4.62 0 0 1-4.313-3.206 4.615 4.615 0 0 0 2.084-.079 4.616 4.616 0 0 1-3.703-4.525v-.059c.642.357 1.36.556 2.095.578a4.623 4.623 0 0 1-1.429-6.164 13.093 13.093 0 0 0 9.514 4.822 4.624 4.624 0 0 1 1.335-4.411 4.621 4.621 0 0 1 6.531.2 9.244 9.244 0 0 0 2.931-1.121 4.636 4.636 0 0 1-2.029 2.553 9.183 9.183 0 0 0 2.651-.727 9.4 9.4 0 0 1-2.303 2.391z"/>
    </symbol>
    <symbol id="icon-gt" viewBox="0 0 22 32">
      <path d="M2.477 2.582c-0.941 0.806-1.706 1.472-1.696 1.485l6.925 5.914c6.264 5.277 8.535 7.225 10.802 9.176l-3.826-3.218c0.064 0.061-0.282 0.362-6.909 6.016-3.918 3.312-6.19 5.266-8.455 7.23l1.473-1.249c-0.013 0.048 3.398 2.938 3.437 2.915 0.045-0.029 17.389-14.826 17.398-14.848 0.010-0.013-17.315-14.806-17.398-14.858-0.019-0.013-0.806 0.634-1.75 1.437z"></path>
    </symbol>
    <symbol id="icon-x-left" viewBox="0 0 38 32">
      <path id="Vector" opacity="0.35" d="M1 1L103 121M1.29386 69.6377L64.4976 7.24446" stroke="#293458" stroke-linecap="round" stroke-dasharray="4 4"/>
    </symbol>  
  </defs>
</svg>
