<svg aria-hidden="true" style="position:absolute;width:0;height:0;overflow:hidden" xmlns="http://www.w3.org/2000/svg">
  <defs>
    <symbol id="icon-cart" viewBox="0 0 31 32">
      <path d="M14.795 0.366c-1.856 0.255-3.4 1.395-4.211 2.974l-0.015 0.031c-0.399 0.796-0.527 1.326-0.565 2.347l-0.031 0.821-0.204 0.012c-1.542 0.098-3.009 0.513-3.902 1.103-0.937 0.612-1.679 1.45-2.16 2.438l-0.016 0.036c-0.514 1.044-0.814 2.070-1.378 4.743-0.32 1.51-0.991 4.962-1.156 5.95-0.677 4.027-0.474 5.972 0.805 7.7 1.154 1.561 2.629 2.319 5.114 2.629 1.519 0.188 2.359 0.209 8.436 0.209 6.078 0 6.918-0.021 8.436-0.209 2.655-0.331 4.196-1.191 5.359-2.99 0.526-0.812 0.807-1.712 0.906-2.89 0.135-1.605-0.153-3.73-1.212-8.956-0.933-4.599-1.313-5.818-2.226-7.118-0.503-0.716-1.367-1.45-2.187-1.856-0.789-0.39-1.696-0.623-2.895-0.741l-0.641-0.063-0.033-0.794c-0.022-0.528-0.069-0.932-0.138-1.204-0.614-2.441-2.789-4.219-5.379-4.219-0.249 0-0.494 0.016-0.734 0.048l0.028-0.003zM16.641 2.326c0.942 0.319 1.699 0.973 2.145 1.817l0.010 0.021c0.241 0.459 0.364 0.967 0.41 1.695l0.037 0.603h-7.449l0.002-0.372c0.004-0.847 0.164-1.504 0.51-2.090 0.531-0.889 1.393-1.534 2.411-1.769l0.026-0.005c0.484-0.112 1.388-0.064 1.898 0.1zM20.487 8.359c1.195 0.058 1.649 0.113 2.327 0.286 0.928 0.234 1.801 0.775 2.337 1.447 0.466 0.583 0.897 1.572 1.207 2.766 0.524 2.017 1.658 7.804 1.931 9.86 0.127 0.949 0.129 2.586 0.006 3.14-0.181 0.807-0.549 1.461-1.193 2.111-0.99 0.999-2.35 1.377-5.463 1.518-1.497 0.068-10.758 0.068-12.256 0-2.496-0.113-3.836-0.382-4.793-0.961-0.634-0.384-1.415-1.319-1.669-1.999-0.251-0.671-0.282-0.9-0.279-2.116 0.002-1.57 0.135-2.489 0.998-6.847 0.905-4.569 1.271-5.937 1.865-6.949 0.495-0.838 1.252-1.476 2.157-1.807l0.029-0.009c0.722-0.261 1.75-0.412 3.077-0.455 1.225-0.039 8.83-0.026 9.718 0.017zM10.539 10.508c-0.266 0.061-0.496 0.193-0.674 0.375l-0 0c-0.34 0.311-0.479 0.635-0.479 1.116 0 0.48 0.138 0.805 0.475 1.114 0.336 0.308 0.55 0.389 1.036 0.391 0.347 0.002 0.452-0.018 0.673-0.133 0.326-0.17 0.652-0.533 0.759-0.846 0.329-0.966-0.322-1.973-1.319-2.039-0.046-0.004-0.1-0.007-0.155-0.007-0.112 0-0.221 0.010-0.328 0.029l0.011-0.002zM19.77 10.508c-0.266 0.061-0.496 0.193-0.674 0.375l-0 0c-0.34 0.311-0.479 0.635-0.479 1.116 0 0.48 0.138 0.805 0.475 1.114 0.336 0.308 0.55 0.389 1.036 0.391 0.347 0.002 0.452-0.018 0.673-0.133 0.326-0.17 0.652-0.533 0.759-0.846 0.329-0.966-0.322-1.973-1.319-2.039-0.046-0.004-0.1-0.007-0.155-0.007-0.112 0-0.221 0.010-0.328 0.029l0.011-0.002z"></path>
    </symbol>
    <symbol id="icon-facebook" viewBox="0 0 32 32">
      <path fill="#3d5a98" style="fill:var(--color1, #3d5a98)" d="M29.163 1.208H2.84c-.902 0-1.633.731-1.633 1.632v26.323c0 .902.731 1.633 1.633 1.633h26.323c.902 0 1.633-.731 1.633-1.633V2.84c0-.902-.731-1.633-1.633-1.633z"/>
      <path fill="#fff" style="fill:var(--color2, #fff)" d="M21.62 30.793V19.336h3.845l.575-4.465h-4.42v-2.85c0-1.293.36-2.175 2.212-2.175h2.365v-4a31.755 31.755 0 0 0-3.448-.17c-3.405 0-5.75 2.075-5.75 5.902v3.293h-3.845v4.465h3.845v11.457h4.62z"/>
    </symbol>
    <symbol id="icon-instagram" viewBox="0 0 32 32">
      <path style="fill:var(--color3, #000)" d="M24.5 0h-17A7.5 7.5 0 0 0 0 7.5v17A7.5 7.5 0 0 0 7.5 32h17a7.5 7.5 0 0 0 7.5-7.5v-17A7.5 7.5 0 0 0 24.5 0z"/>
      <path style="fill:var(--color3, #000)" d="M24.5 0h-17A7.5 7.5 0 0 0 0 7.5v17A7.5 7.5 0 0 0 7.5 32h17a7.5 7.5 0 0 0 7.5-7.5v-17A7.5 7.5 0 0 0 24.5 0z"/>
      <path fill="#fff" style="fill:var(--color2, #fff)" d="M16.001 3.5c-3.395 0-3.821.015-5.154.075-1.331.061-2.239.272-3.034.581-.822.319-1.52.746-2.214 1.441S4.476 6.989 4.156 7.811c-.31.795-.521 1.704-.581 3.034-.06 1.333-.075 1.76-.075 5.155s.015 3.82.075 5.153c.061 1.331.272 2.239.581 3.034.319.822.747 1.52 1.442 2.214s1.392 1.123 2.214 1.443c.795.309 1.704.52 3.034.581 1.333.061 1.759.076 5.154.076s3.82-.015 5.153-.076c1.331-.061 2.24-.272 3.036-.581.822-.319 1.518-.747 2.213-1.443s1.122-1.392 1.443-2.214c.307-.795.518-1.704.581-3.034.06-1.333.076-1.758.076-5.153s-.016-3.821-.076-5.154c-.062-1.331-.273-2.239-.581-3.034-.32-.822-.747-1.52-1.443-2.215s-1.391-1.122-2.213-1.441c-.797-.309-1.706-.52-3.037-.581-1.333-.061-1.758-.075-5.154-.075h.004zM14.88 5.753h1.121c3.338 0 3.733.012 5.051.072 1.219.056 1.88.259 2.321.431.583.226.999.497 1.436.935s.708.854.935 1.438c.171.44.375 1.101.43 2.32.06 1.318.073 1.713.073 5.05s-.013 3.732-.073 5.049c-.056 1.219-.259 1.88-.43 2.32-.227.583-.498.999-.935 1.436s-.853.708-1.436.935c-.44.172-1.102.375-2.321.431-1.318.06-1.714.073-5.051.073s-3.733-.013-5.051-.073c-1.219-.056-1.88-.26-2.321-.431-.583-.227-1-.497-1.438-.935s-.708-.853-.935-1.437c-.171-.44-.375-1.102-.431-2.32-.06-1.318-.072-1.714-.072-5.052s.012-3.732.072-5.05c.056-1.219.259-1.88.431-2.321.227-.583.498-1 .936-1.438s.854-.708 1.438-.935c.441-.172 1.102-.375 2.321-.431 1.153-.052 1.6-.068 3.93-.07v.003zm7.794 2.075a1.5 1.5 0 1 0 0 3.001 1.5 1.5 0 0 0 0-3.002zm-6.673 1.753a6.42 6.42 0 1 0 .002 12.838A6.42 6.42 0 0 0 16 9.581zm0 2.252a4.167 4.167 0 1 1 0 8.334 4.167 4.167 0 0 1 0-8.334z"/>
    </symbol>
    <symbol id="icon-logo" viewBox="0 0 178 32">
      <path fill="#0e0e0e" style="fill:var(--color4, #0e0e0e)" d="M0 0h178.087v32H0V0z"/>
      <path fill="#fdfdfd" style="fill:var(--color5, #fdfdfd)" d="M-171.13-57.043h2003.478v3959.652H-171.13V-57.043z"/>
      <path fill="#301607" style="fill:var(--color6, #301607)" d="M5.414 22.72c1.938-.293 3.708-1.286 4.987-2.798s1.982-3.442 1.98-5.438c.01-2.505.902-4.924 2.514-6.815s3.838-3.131 6.272-3.493l3.491-.508c-.094-.11-.175-.22-.283-.329-4.393-4.475-12.83-3.13-18.867 2.992C.4 11.602-1.325 18.602 1.047 23.351l4.366-.631z"/>
      <path fill="#301607" style="fill:var(--color6, #301607)" d="M14.484 14.484c-.009 2.505-.899 4.923-2.508 6.817s-3.832 3.137-6.265 3.505l-3.315.48.202.233c4.393 4.475 12.83 3.143 18.867-2.979 5.081-5.161 6.86-12.175 4.501-16.855l-4.501.659c-1.926.285-3.688 1.262-4.968 2.755s-1.994 3.403-2.012 5.385zM55.777 6.696c0 1.186-.873 1.986-1.95 1.986-1.281 0-1.747-.949-4.337-.949-3.377 0-6.171 2.817-6.171 6.523 0 3.825 2.707 6.523 6.171 6.523 2.824 0 3.377-1.008 4.628-1.008 1.077 0 1.95.83 1.95 1.986 0 .978-.815 1.69-1.747 2.075-1.31.504-2.911.83-4.803.83-6.055 0-10.596-4.032-10.596-10.407 0-5.9 4.949-10.347 10.654-10.347 1.863 0 3.231.267 4.512.741 1.019.385 1.688 1.067 1.688 2.046zM62.568 17.607c0 2.194 1.31 3.765 3.406 3.765s3.406-1.571 3.406-3.765-1.31-3.765-3.406-3.765-3.406 1.571-3.406 3.765zm-3.785 0c0-4.418 3.173-7.086 7.19-7.086s7.219 2.668 7.219 7.086-3.202 7.056-7.219 7.056-7.19-2.639-7.19-7.056zM81.527 10.788h4.832V9.78c0-3.054 1.077-5.841 4.425-5.841 1.193 0 2.27.208 3.085.563.99.415 1.63.978 1.63 1.897 0 .8-.64 1.482-1.455 1.482-.407 0-.728-.237-1.135-.415a3.002 3.002 0 0 0-1.281-.267c-1.106 0-1.426.652-1.426 2.224v1.364h2.503c.815 0 1.456.741 1.456 1.542 0 .86-.64 1.542-1.456 1.542h-2.503v8.894c0 1.038-.873 1.898-1.921 1.898s-1.921-.86-1.921-1.898v-8.894h-4.832v8.894c0 1.038-.873 1.898-1.921 1.898s-1.921-.86-1.921-1.898v-8.894h-.961c-.815 0-1.485-.682-1.485-1.542 0-.8.669-1.542 1.485-1.542h.961V9.423c0-2.579 1.106-5.188 4.337-5.188 1.048 0 1.863.148 2.62.474.902.385 1.514.978 1.514 1.868 0 .83-.553 1.482-1.252 1.482-.32 0-.553-.089-.873-.208s-.64-.208-1.019-.208c-1.164 0-1.485 1.008-1.485 2.075v1.067zM106.873 20.631c.815 0 1.426.712 1.426 1.571 0 .8-.553 1.364-1.659 1.809-1.193.504-2.503.652-3.784.652-2.241 0-4.046-.712-5.269-1.986-1.252-1.305-1.95-3.113-1.95-5.248 0-2.046.728-3.795 1.892-5.01 1.164-1.186 2.824-1.897 4.919-1.897 2.154 0 3.697.712 4.745 1.779 1.281 1.334 1.659 2.935 1.659 4.269 0 1.393-.699 2.194-1.892 2.194h-7.277c.349 1.808 1.543 2.787 3.435 2.787 2.038 0 2.795-.919 3.755-.919zm-7.219-4.447h5.473c-.116-1.423-1.077-2.579-2.649-2.579-1.601 0-2.562 1.008-2.823 2.579zM123.04 20.631c.815 0 1.426.712 1.426 1.571 0 .8-.553 1.364-1.659 1.809-1.193.504-2.503.652-3.784.652-2.241 0-4.046-.712-5.269-1.986-1.252-1.305-1.95-3.113-1.95-5.248 0-2.046.728-3.795 1.892-5.01 1.164-1.186 2.823-1.897 4.919-1.897 2.154 0 3.697.712 4.745 1.779 1.281 1.334 1.659 2.935 1.659 4.269 0 1.393-.699 2.194-1.892 2.194h-7.277c.349 1.808 1.543 2.787 3.435 2.787 2.038 0 2.794-.919 3.755-.919zm-7.219-4.447h5.473c-.116-1.423-1.077-2.579-2.649-2.579-1.601 0-2.562 1.008-2.824 2.579zM143.661 18.882c0 3.765-3.318 5.485-6.607 5.485h-6.113c-1.193 0-2.096-.919-2.096-2.075V6.252c0-1.156.902-2.075 2.096-2.075h5.065c2.94 0 6.026 1.631 6.026 5.129 0 2.046-.874 3.587-2.475 4.329v.059c2.854.682 4.104 2.55 4.104 5.188zm-5.822-9.013c0-1.482-1.164-2.253-2.591-2.253h-2.212v4.773h2.183c1.077 0 2.62-.445 2.62-2.52zm1.543 8.479c0-1.482-.99-2.55-3.406-2.55h-2.94v5.099h3.086c1.717 0 3.26-.504 3.26-2.55zM147.42 18.496v-6.078c0-1.038.845-1.897 1.921-1.897s1.921.86 1.921 1.897v5.841c0 .771.117 1.334.378 1.838.408.741 1.165 1.245 2.387 1.245s1.978-.504 2.357-1.245c.263-.504.378-1.067.378-1.838v-5.841c0-1.038.845-1.897 1.921-1.897s1.921.86 1.921 1.897v6.078c0 1.779-.378 3.054-1.165 4.032-1.165 1.482-3.057 2.135-5.414 2.135-2.387 0-4.309-.682-5.444-2.135-.757-1.008-1.165-2.253-1.165-4.032zM175.435 10.491c1.163 0 2.095.949 2.095 2.135 0 .534-.232 1.038-.378 1.453l-4.075 11.029c-1.66 4.477-4.687 6.196-7.364 6.196-1.049 0-1.863-.83-1.863-1.868s.814-1.868 1.863-1.868c1.455 0 2.474-.712 3.201-2.253l-5.037-11.207c-.174-.385-.465-.978-.465-1.423 0-1.216.96-2.194 2.125-2.194 1.194 0 1.805.86 2.038 1.423l3.231 8.301 2.532-7.916c.349-1.156 1.106-1.809 2.097-1.809z"/>
    </symbol>
    <symbol id="icon-search" viewBox="0 0 32 32">
      <path d="M12.133 4.696c-2.15 0.204-4.030 1.217-5.359 2.727l-0.008 0.009c-1.243 1.42-2.001 3.292-2.001 5.341s0.758 3.921 2.009 5.35l-0.008-0.009c2.54 2.936 6.918 3.63 10.274 1.63 0.175-0.105 0.426-0.271 0.556-0.37l0.237-0.179 4.056 4.051c4.37 4.363 4.222 4.233 4.685 4.146 0.405-0.075 0.874-0.577 0.93-0.993 0.003-0.024 0.004-0.052 0.004-0.080 0-0.118-0.027-0.23-0.074-0.33l0.002 0.005c-0.064-0.141-1.383-1.5-4.115-4.237l-4.021-4.029 0.179-0.237c0.43-0.57 0.801-1.291 1.068-2.077 0.281-0.788 0.443-1.697 0.443-2.644 0-3.534-2.261-6.54-5.416-7.65l-0.057-0.017c-0.582-0.21-1.256-0.356-1.956-0.406l-0.025-0.001c-0.661-0.059-0.702-0.059-1.406 0.001zM13.923 6.804c0.897 0.168 1.694 0.502 2.393 0.969l-0.023-0.015c0.426 0.279 1.339 1.196 1.62 1.628 1.369 2.107 1.363 4.692-0.018 6.801-0.269 0.412-1.19 1.333-1.602 1.602-1.679 1.099-3.679 1.339-5.529 0.665-0.865-0.316-1.577-0.79-2.264-1.506-1.113-1.161-1.674-2.561-1.674-4.174 0-1.609 0.565-3.016 1.674-4.174 0.906-0.946 1.9-1.496 3.192-1.767 0.626-0.131 1.619-0.143 2.231-0.028z"></path>
    </symbol>
    <symbol id="icon-twitter" viewBox="0 0 32 32">
      <path fill="#fff" style="fill:var(--color2, #fff)" d="M24.5 0h-17A7.5 7.5 0 0 0 0 7.5v17A7.5 7.5 0 0 0 7.5 32h17a7.5 7.5 0 0 0 7.5-7.5v-17A7.5 7.5 0 0 0 24.5 0z"/>
      <path fill="#1d9bf0" style="fill:var(--color7, #1d9bf0)" d="M24.5 0h-17A7.5 7.5 0 0 0 0 7.5v17A7.5 7.5 0 0 0 7.5 32h17a7.5 7.5 0 0 0 7.5-7.5v-17A7.5 7.5 0 0 0 24.5 0z"/>
      <path fill="#fff" style="fill:var(--color2, #fff)" d="M24.947 11.426c.014.198.014.397.014.597 0 6.1-4.643 13.134-13.134 13.134v-.004a13.07 13.07 0 0 1-7.076-2.069 9.268 9.268 0 0 0 6.832-1.913 4.62 4.62 0 0 1-4.313-3.206 4.615 4.615 0 0 0 2.084-.079 4.616 4.616 0 0 1-3.703-4.525v-.059c.642.357 1.36.556 2.095.578a4.623 4.623 0 0 1-1.429-6.164 13.093 13.093 0 0 0 9.514 4.822 4.624 4.624 0 0 1 1.335-4.411 4.621 4.621 0 0 1 6.531.2 9.244 9.244 0 0 0 2.931-1.121 4.636 4.636 0 0 1-2.029 2.553 9.183 9.183 0 0 0 2.651-.727 9.4 9.4 0 0 1-2.303 2.391z"/>
    </symbol>
  </defs>
</svg>
